<svg width="26" height="25" viewBox="0 0 26 25" fill="none" xmlns="http://www.w3.org/2000/svg">
<path d="M23 5.78564H20.275C20.4125 5.39814 20.5 4.97314 20.5 4.53564C20.5 2.46064 18.825 0.785645 16.75 0.785645C15.4375 0.785645 14.3 1.46064 13.625 2.47314L13 3.31064L12.375 2.46064C11.7 1.46064 10.5625 0.785645 9.25 0.785645C7.175 0.785645 5.5 2.46064 5.5 4.53564C5.5 4.97314 5.5875 5.39814 5.725 5.78564H3C1.6125 5.78564 0.5125 6.89814 0.5125 8.28564L0.5 22.0356C0.5 23.4231 1.6125 24.5356 3 24.5356H23C24.3875 24.5356 25.5 23.4231 25.5 22.0356V8.28564C25.5 6.89814 24.3875 5.78564 23 5.78564ZM16.75 3.28564C17.4375 3.28564 18 3.84814 18 4.53564C18 5.22314 17.4375 5.78564 16.75 5.78564C16.0625 5.78564 15.5 5.22314 15.5 4.53564C15.5 3.84814 16.0625 3.28564 16.75 3.28564ZM9.25 3.28564C9.9375 3.28564 10.5 3.84814 10.5 4.53564C10.5 5.22314 9.9375 5.78564 9.25 5.78564C8.5625 5.78564 8 5.22314 8 4.53564C8 3.84814 8.5625 3.28564 9.25 3.28564ZM23 22.0356H3V19.5356H23V22.0356ZM23 15.7856H3V8.28564H9.35L6.75 11.8231L8.775 13.2856L13 7.53564L17.225 13.2856L19.25 11.8231L16.65 8.28564H23V15.7856Z" fill="#FF385C"/>
</svg>
