<svg width="36" height="34" viewBox="0 0 36 34" fill="none" xmlns="http://www.w3.org/2000/svg">
<path d="M9.285 19.75C5.4175 19.75 2.285 22.8825 2.285 26.75C2.285 30.6175 5.4175 33.75 9.285 33.75C13.1525 33.75 16.285 30.6175 16.285 26.75C16.285 22.8825 13.1525 19.75 9.285 19.75ZM9.285 30.25C7.36 30.25 5.785 28.675 5.785 26.75C5.785 24.825 7.36 23.25 9.285 23.25C11.21 23.25 12.785 24.825 12.785 26.75C12.785 28.675 11.21 30.25 9.285 30.25ZM19.75 19.75V33.75H33.75V19.75H19.75ZM30.25 30.25H23.25V23.25H30.25V30.25ZM9.25 0.5L0.5 16.25H18L9.25 0.5ZM9.25 7.71L12.05 12.75H6.45L9.25 7.71ZM30.6875 1.375C28.8325 1.375 27.52 2.355 26.75 3.4225C25.98 2.355 24.6675 1.375 22.8125 1.375C20.0825 1.375 18 3.615 18 6.1875C18 9.6875 22.235 12.1725 26.75 16.25C31.265 12.1725 35.5 9.6875 35.5 6.1875C35.5 3.615 33.4175 1.375 30.6875 1.375ZM26.75 11.6125C24.2125 9.4775 21.5 7.4125 21.5 6.1875C21.5 5.435 22.1125 4.875 22.8125 4.875C23.355 4.875 23.7225 5.1725 24.09 5.5225L26.75 8.025L29.41 5.5225C29.7775 5.1725 30.145 4.875 30.6875 4.875C31.3875 4.875 32 5.435 32 6.1875C32 7.4125 29.2875 9.4775 26.75 11.6125Z" fill="white"/>
</svg>
