<svg width="32" height="36" viewBox="0 0 32 36" fill="none" xmlns="http://www.w3.org/2000/svg">
<path d="M28.25 4H26.5V0.5H23V4H9V0.5H5.5V4H3.75C1.8075 4 0.2675 5.575 0.2675 7.5L0.25 32C0.25 33.925 1.8075 35.5 3.75 35.5H28.25C30.175 35.5 31.75 33.925 31.75 32V7.5C31.75 5.575 30.175 4 28.25 4ZM28.25 32H3.75V14.5H28.25V32ZM28.25 11H3.75V7.5H28.25V11ZM10.75 21.5H7.25V18H10.75V21.5ZM17.75 21.5H14.25V18H17.75V21.5ZM24.75 21.5H21.25V18H24.75V21.5ZM10.75 28.5H7.25V25H10.75V28.5ZM17.75 28.5H14.25V25H17.75V28.5ZM24.75 28.5H21.25V25H24.75V28.5Z" fill="white"/>
</svg>
