<svg width="14" height="24" viewBox="0 0 14 24" fill="none" xmlns="http://www.w3.org/2000/svg">
<path d="M7.73245 10.5333C4.70578 9.74667 3.73245 8.93333 3.73245 7.66667C3.73245 6.21333 5.07911 5.2 7.33245 5.2C9.70578 5.2 10.5858 6.33333 10.6658 8H13.6124C13.5191 5.70667 12.1191 3.6 9.33245 2.92V0H5.33245V2.88C2.74578 3.44 0.665781 5.12 0.665781 7.69333C0.665781 10.7733 3.21245 12.3067 6.93245 13.2C10.2658 14 10.9324 15.1733 10.9324 16.4133C10.9324 17.3333 10.2791 18.8 7.33245 18.8C4.58578 18.8 3.50578 17.5733 3.35912 16H0.425781C0.585781 18.92 2.77245 20.56 5.33245 21.1067V24H9.33245V21.1333C11.9324 20.64 13.9991 19.1333 13.9991 16.4C13.9991 12.6133 10.7591 11.32 7.73245 10.5333Z" fill="white"/>
</svg>
