<svg width="39" height="44" viewBox="0 0 39 44" fill="none" xmlns="http://www.w3.org/2000/svg">
<path d="M34.6939 20.6817C34.2077 20.6829 33.7263 20.7799 33.2758 20.9667C33.0596 20.1453 32.5857 19.4188 31.9269 18.8991C31.2681 18.3798 30.4609 18.0955 29.6291 18.0907C28.9751 18.0931 28.3329 18.2722 27.7678 18.6092C27.3075 17.8674 26.6145 17.3075 25.8029 17.0204C24.9909 16.7333 24.1083 16.7361 23.2983 17.0285V14.4375C25.2517 13.2819 26.6015 11.298 26.9829 9.02248H34.1749L32.5287 10.6937C32.289 10.937 32.1545 11.2683 32.1545 11.6134C32.1545 11.959 32.289 12.2899 32.5287 12.5331C32.7664 12.7784 33.0903 12.9164 33.428 12.9164C33.7653 12.9164 34.0892 12.7784 34.3269 12.5331L38.1254 8.64685C38.3651 8.40364 38.5 8.07271 38.5 7.72716C38.5 7.38161 38.3651 7.05069 38.1254 6.80746L34.3269 2.92119V2.92079C33.8304 2.41283 33.0252 2.41283 32.5287 2.92079C32.0322 3.42874 32.0322 4.25256 32.5287 4.76055L34.1749 6.43181H26.9829C26.5686 4.01015 25.0588 1.93204 22.9119 0.828017C20.7652 -0.276006 18.2344 -0.276006 16.0877 0.828017C13.9411 1.93204 12.4314 4.01015 12.0167 6.43181H4.82508L6.47127 4.76055H6.47088C6.96736 4.25259 6.96736 3.42878 6.47088 2.92079C5.9744 2.41283 5.16951 2.41283 4.6731 2.92079L0.874246 6.80747C0.634535 7.05069 0.5 7.38162 0.5 7.72717C0.5 8.07272 0.634535 8.40364 0.874246 8.64686L4.67269 12.5331H4.67309C4.91081 12.7784 5.23426 12.9164 5.572 12.9164C5.90974 12.9164 6.23318 12.7784 6.47091 12.5331C6.71062 12.2899 6.84555 11.959 6.84555 11.6134C6.84555 11.2683 6.71062 10.937 6.47091 10.6937L4.82512 9.02248H12.0167C12.3981 11.298 13.7483 13.2819 15.7013 14.4375V29.2188L14.5619 28.053C13.5201 26.99 12.1085 26.3927 10.6368 26.3927C9.16529 26.3927 7.75358 26.99 6.71139 28.053C6.27364 28.4989 6.02004 29.1002 6.00378 29.732C5.98711 30.3638 6.20896 30.9777 6.6229 31.4471L15.7393 41.811V41.8106C16.972 43.2062 18.7249 44.0016 20.5636 43.9999H31.1613C32.4646 44.0076 33.7397 43.6138 34.8215 42.8699C35.903 42.126 36.7408 41.0662 37.2262 39.8286C38.0747 37.6124 38.5041 35.2521 38.4922 32.8718V24.5682C38.4922 23.5373 38.0921 22.5489 37.3798 21.8201C36.6674 21.0912 35.7014 20.6815 34.6937 20.6815L34.6939 20.6817ZM14.4352 7.72778C14.4368 6.02648 15.2551 4.43432 16.6239 3.46802C17.9928 2.50204 19.7377 2.28479 21.2931 2.88698C22.8484 3.48955 24.0156 4.83474 24.4156 6.48615C24.816 8.13756 24.3985 9.8847 23.2984 11.161V9.02319C23.2984 7.63497 22.5745 6.35185 21.399 5.65748C20.224 4.96355 18.7762 4.96355 17.6006 5.65748C16.4255 6.35182 15.7012 7.63487 15.7012 9.02319V11.161C14.8841 10.2129 14.434 8.9919 14.4352 7.7279V7.72778ZM35.9608 32.8726C35.958 34.9102 35.5754 36.9282 34.8337 38.8191C34.5495 39.58 34.0463 40.235 33.3907 40.6974C32.7354 41.1599 31.9579 41.4084 31.1618 41.4096H20.5641C19.4465 41.4198 18.3766 40.95 17.6138 40.1143L8.5859 29.7505C9.15937 29.2076 9.91582 28.9124 10.6968 28.927C11.4778 28.9413 12.2231 29.2645 12.7772 29.8285L16.0692 33.2096C16.4331 33.577 16.9776 33.6846 17.4491 33.4816C17.9055 33.2904 18.2119 32.8457 18.2341 32.3414V9.02294C18.2341 8.30749 18.8012 7.72765 19.5005 7.72765C20.1998 7.72765 20.7666 8.30748 20.7666 9.02294V24.5682C20.7666 25.2837 21.3337 25.8635 22.033 25.8635C22.7323 25.8635 23.299 25.2837 23.299 24.5682V20.6816C23.299 19.9661 23.8661 19.3863 24.5654 19.3863C25.2647 19.3863 25.8314 19.9661 25.8314 20.6816V25.8635C25.8314 26.579 26.3981 27.1592 27.0974 27.1592C27.7967 27.1592 28.3638 26.579 28.3638 25.8635V21.9773C28.3638 21.2618 28.9306 20.6816 29.6299 20.6816C30.3291 20.6816 30.8963 21.2618 30.8963 21.9773V27.1592C30.8963 27.8747 31.463 28.4545 32.1623 28.4545C32.8616 28.4545 33.4287 27.8747 33.4287 27.1592V24.5682C33.4287 23.8528 33.9954 23.2725 34.6947 23.2725C35.394 23.2725 35.9611 23.8528 35.9611 24.5682V32.8723L35.9608 32.8726Z" fill="white"/>
</svg>
