<svg width="23" height="20" viewBox="0 0 23 20" fill="none" xmlns="http://www.w3.org/2000/svg">
<path d="M11.5 4.0002C15.29 4.0002 18.67 6.1302 20.32 9.5002C19.73 10.7202 18.9 11.7702 17.91 12.6202L19.32 14.0302C20.71 12.8002 21.81 11.2602 22.5 9.5002C20.77 5.1102 16.5 2.0002 11.5 2.0002C10.23 2.0002 9.01 2.2002 7.86 2.5702L9.51 4.2202C10.16 4.0902 10.82 4.0002 11.5 4.0002ZM10.43 5.14019L12.5 7.2102C13.07 7.4602 13.53 7.9202 13.78 8.4902L15.85 10.5602C15.93 10.2202 15.99 9.8602 15.99 9.4902C16 7.0102 13.98 5.0002 11.5 5.0002C11.13 5.0002 10.78 5.05019 10.43 5.14019ZM1.51 1.8702L4.19 4.5502C2.56 5.8302 1.27 7.5302 0.5 9.5002C2.23 13.8902 6.5 17.0002 11.5 17.0002C13.02 17.0002 14.48 16.7102 15.82 16.1802L19.24 19.6002L20.65 18.1902L2.92 0.450195L1.51 1.8702ZM9.01 9.3702L11.62 11.9802C11.58 11.9902 11.54 12.0002 11.5 12.0002C10.12 12.0002 9 10.8802 9 9.5002C9 9.4502 9.01 9.4202 9.01 9.3702ZM5.61 5.97019L7.36 7.7202C7.13 8.2702 7 8.8702 7 9.5002C7 11.9802 9.02 14.0002 11.5 14.0002C12.13 14.0002 12.73 13.8702 13.27 13.6402L14.25 14.6202C13.37 14.8602 12.45 15.0002 11.5 15.0002C7.71 15.0002 4.33 12.8702 2.68 9.5002C3.38 8.0702 4.4 6.89019 5.61 5.97019Z" fill="#414141"/>
</svg>
