<svg width="23" height="23" viewBox="0 0 23 23" fill="none" xmlns="http://www.w3.org/2000/svg">
<g clip-path="url(#clip0_2728_2621)">
<path d="M11.6126 2.13354C6.46063 2.13354 2.2793 6.31488 2.2793 11.4669C2.2793 16.6189 6.46063 20.8002 11.6126 20.8002C16.7646 20.8002 20.946 16.6189 20.946 11.4669C20.946 6.31488 16.7646 2.13354 11.6126 2.13354ZM11.6126 18.9335C7.49663 18.9335 4.14596 15.5829 4.14596 11.4669C4.14596 7.35088 7.49663 4.00021 11.6126 4.00021C15.7286 4.00021 19.0793 7.35088 19.0793 11.4669C19.0793 15.5829 15.7286 18.9335 11.6126 18.9335ZM14.4126 6.33355V8.66688H10.6793V10.5335H14.4126V12.8669L17.6793 9.60021L14.4126 6.33355ZM8.81263 10.0669L5.54596 13.3335L8.81263 16.6002V14.2669H12.546V12.4002H8.81263V10.0669Z" fill="white"/>
</g>
<defs>
<clipPath id="clip0_2728_2621">
<rect width="22.4" height="22.4" fill="white" transform="translate(0.412109 0.266846)"/>
</clipPath>
</defs>
</svg>
