<svg width="25" height="24" viewBox="0 0 25 24" fill="none" xmlns="http://www.w3.org/2000/svg">
<g clip-path="url(#clip0_2408_1523)">
<path d="M5.76644 9.76453C6.69903 6.93863 9.35469 4.90909 12.5002 4.90909C14.1912 4.90909 15.7184 5.50909 16.9184 6.49091L20.4093 3C18.2821 1.14545 15.5548 0 12.5002 0C7.77031 0 3.69799 2.6983 1.74023 6.65002L5.76644 9.76453Z" fill="#EA4335"/>
<path d="M16.5406 18.0128C15.4508 18.7165 14.0659 19.0911 12.4998 19.0911C9.36633 19.0911 6.71896 17.0771 5.77682 14.2681L1.7373 17.3352C3.69263 21.2938 7.76484 24.0002 12.4998 24.0002C15.4327 24.0002 18.2352 22.9576 20.334 20.9998L16.5406 18.0128Z" fill="#34A853"/>
<path d="M20.3342 20.9998C22.5292 18.9523 23.9545 15.9038 23.9545 12.0002C23.9545 11.2911 23.8455 10.5275 23.6818 9.81836H12.5V14.4547H18.9364C18.6188 16.0138 17.7663 17.2214 16.5407 18.0128L20.3342 20.9998Z" fill="#4A90E2"/>
<path d="M5.77698 14.2678C5.53833 13.5562 5.40909 12.7936 5.40909 11.9999C5.40909 11.2182 5.53444 10.4667 5.7662 9.76441L1.73999 6.6499C0.936587 8.26031 0.5 10.0753 0.5 11.9999C0.5 13.9194 0.944781 15.73 1.73746 17.3349L5.77698 14.2678Z" fill="#FBBC05"/>
</g>
<defs>
<clipPath id="clip0_2408_1523">
<rect width="24" height="24" fill="white" transform="translate(0.5)"/>
</clipPath>
</defs>
</svg>
