<svg width="21" height="21" viewBox="0 0 21 21" fill="none" xmlns="http://www.w3.org/2000/svg">
<path d="M9.60938 16.6289H11.6094V14.6289H9.60938V16.6289ZM10.6094 0.628906C5.08938 0.628906 0.609375 5.10891 0.609375 10.6289C0.609375 16.1489 5.08938 20.6289 10.6094 20.6289C16.1294 20.6289 20.6094 16.1489 20.6094 10.6289C20.6094 5.10891 16.1294 0.628906 10.6094 0.628906ZM10.6094 18.6289C6.19938 18.6289 2.60938 15.0389 2.60938 10.6289C2.60938 6.21891 6.19938 2.62891 10.6094 2.62891C15.0194 2.62891 18.6094 6.21891 18.6094 10.6289C18.6094 15.0389 15.0194 18.6289 10.6094 18.6289ZM10.6094 4.62891C8.39937 4.62891 6.60938 6.41891 6.60938 8.62891H8.60938C8.60938 7.52891 9.50937 6.62891 10.6094 6.62891C11.7094 6.62891 12.6094 7.52891 12.6094 8.62891C12.6094 10.6289 9.60938 10.3789 9.60938 13.6289H11.6094C11.6094 11.3789 14.6094 11.1289 14.6094 8.62891C14.6094 6.41891 12.8194 4.62891 10.6094 4.62891Z" fill="white"/>
</svg>
