<svg width="17" height="16" viewBox="0 0 17 16" fill="none" xmlns="http://www.w3.org/2000/svg">
<g clip-path="url(#clip0_2956_3678)">
<path d="M8.97005 3.99997C11.4967 3.99997 13.7501 5.41997 14.8501 7.66663C14.4567 8.47997 13.9034 9.17997 13.2434 9.74663L14.1834 10.6866C15.1101 9.86664 15.8434 8.83997 16.3034 7.66663C15.1501 4.73997 12.3034 2.66663 8.97005 2.66663C8.12339 2.66663 7.31005 2.79997 6.54339 3.04663L7.64339 4.14663C8.07672 4.05997 8.51672 3.99997 8.97005 3.99997ZM8.25672 4.75997L9.63672 6.13997C10.0167 6.30663 10.3234 6.6133 10.4901 6.9933L11.8701 8.3733C11.9234 8.14663 11.9634 7.90663 11.9634 7.65997C11.9701 6.00663 10.6234 4.66663 8.97005 4.66663C8.72339 4.66663 8.49005 4.69997 8.25672 4.75997ZM2.31005 2.57997L4.09672 4.36663C3.01005 5.21997 2.15005 6.3533 1.63672 7.66663C2.79005 10.5933 5.63672 12.6666 8.97005 12.6666C9.98339 12.6666 10.9567 12.4733 11.8501 12.12L14.1301 14.4L15.0701 13.46L3.25005 1.6333L2.31005 2.57997ZM7.31005 7.57997L9.05005 9.31997C9.02339 9.32663 8.99672 9.3333 8.97005 9.3333C8.05005 9.3333 7.30339 8.58663 7.30339 7.66663C7.30339 7.6333 7.31005 7.6133 7.31005 7.57997ZM5.04339 5.3133L6.21005 6.47997C6.05672 6.84663 5.97005 7.24663 5.97005 7.66663C5.97005 9.31997 7.31672 10.6666 8.97005 10.6666C9.39005 10.6666 9.79005 10.58 10.1501 10.4266L10.8034 11.08C10.2167 11.24 9.60339 11.3333 8.97005 11.3333C6.44339 11.3333 4.19005 9.9133 3.09005 7.66663C3.55672 6.7133 4.23672 5.92663 5.04339 5.3133Z" fill="#414141"/>
</g>
<defs>
<clipPath id="clip0_2956_3678">
<rect width="16" height="16" fill="white" transform="translate(0.96875)"/>
</clipPath>
</defs>
</svg>
