<svg width="341" height="109" viewBox="0 0 341 109" fill="none" xmlns="http://www.w3.org/2000/svg">
<g clip-path="url(#clip0_3704_3655)">
<path d="M287.199 25.708C284.479 23.248 281.359 20.698 278.559 17.828C276.439 15.638 275.249 12.848 275.179 9.67797C275.019 2.62797 281.419 -1.69203 287.909 1.11797C291.229 2.54797 293.7 5.03797 295.52 8.00797C297.83 11.788 299.739 15.808 301.809 19.738C302.099 20.288 302.289 20.878 302.679 21.828C303.249 20.558 303.679 19.598 304.109 18.628C306.349 13.598 308.689 8.62797 312.559 4.58797C315.219 1.81797 318.299 -0.162029 322.339 0.317971C327.659 0.947971 331.359 6.10797 329.899 11.258C329.209 13.688 327.859 16.008 326.429 18.128C325.189 19.978 323.499 21.558 321.859 23.098C320.229 24.628 318.409 25.968 316.849 27.258C322.659 26.998 328.719 26.798 334.759 26.428C336.319 26.338 337.859 25.738 339.489 25.348C339.429 27.728 337.969 29.088 336.379 29.978C337.059 31.748 337.719 33.468 338.379 35.178C327.759 29.618 316.979 28.628 305.579 31.368C306.799 30.468 307.989 29.518 309.249 28.678C313.049 26.158 316.52 23.278 318.77 19.238C319.65 17.648 320.359 15.878 320.689 14.098C321.149 11.608 319.469 10.108 317.169 11.098C314.729 12.148 312.259 13.528 310.349 15.348C307.519 18.048 305.169 21.248 302.479 24.398C301.429 22.798 300.539 21.208 299.409 19.798C297.249 17.098 295.109 14.338 292.639 11.948C291.439 10.788 289.569 10.088 287.879 9.74797C285.329 9.23797 283.259 11.078 283.659 13.638C283.969 15.668 284.819 17.758 285.939 19.488C288.329 23.178 291.869 25.768 295.399 28.318C296.049 28.788 296.699 29.248 297.339 29.828C284.639 26.668 273.329 29.388 263.209 37.828C262.669 35.188 263.909 33.358 265.399 31.548C263.819 30.958 262.279 30.388 260.729 29.808L260.839 29.318C269.539 26.058 278.499 24.708 287.189 25.688L287.199 25.708Z" fill="#FF385C"/>
<path d="M54.3899 7.58813H92.2299V12.9581C90.6299 13.9981 88.7899 14.8681 86.7199 15.5681C84.6499 16.2781 82.7699 16.7681 81.0699 17.0481L54.2399 51.0781C56.3999 54.0881 58.9499 57.4981 61.8599 61.3181C64.7799 65.1281 67.8799 69.0881 71.1799 73.1781C74.4699 77.2681 77.8599 81.4181 81.3499 85.5981C84.8299 89.7881 88.2199 93.7681 91.5199 97.5281L98.2999 101.618V106.418H73.7299L68.0799 102.468C65.8199 99.6481 63.4399 96.5181 60.9499 93.0781C58.4499 89.6381 55.9799 86.0681 53.5399 82.3481C51.0899 78.6281 48.6899 74.8881 46.3399 71.1281C43.9899 67.3681 41.7699 63.6981 39.6999 60.1181H33.6299V96.9681C35.6999 97.3481 37.5799 97.9081 39.2799 98.6581C40.9699 99.4081 42.4299 100.208 43.6599 101.058V106.428H0.879883V101.058C2.75988 100.118 4.68988 99.2981 6.66988 98.5881C8.64988 97.8781 10.5699 97.3381 12.4599 96.9681V17.0481C10.2899 16.7681 8.19988 16.2481 6.17988 15.4981C4.14988 14.7481 2.38988 13.8981 0.889883 12.9581V7.58813H43.6599V12.9581C42.4399 13.7081 40.9499 14.4681 39.2099 15.2181C37.4699 15.9681 35.6099 16.5881 33.6299 17.0581V52.9081L41.9599 50.9281L64.6999 17.0481C62.8199 16.6681 60.9599 16.0881 59.1199 15.2881C57.2799 14.4881 55.7099 13.7081 54.3899 12.9581V7.58813Z" fill="#FF385C"/>
<path d="M164.66 85.9479C164.66 88.0179 164.68 89.8079 164.73 91.3179C164.78 92.8279 164.89 94.4279 165.08 96.1179L174.82 97.5279V102.468C173.69 103.028 172.16 103.598 170.23 104.158C168.3 104.718 166.28 105.268 164.16 105.778C162.04 106.298 159.95 106.718 157.88 107.048C155.81 107.378 153.97 107.638 152.37 107.828H147.57C146.63 105.668 146.06 103.498 145.88 101.338C145.69 99.1779 145.55 96.5379 145.46 93.4279H144.75C144.28 95.3079 143.48 97.1279 142.35 98.8679C141.22 100.608 139.78 102.168 138.04 103.528C136.3 104.898 134.25 105.998 131.9 106.848C129.55 107.698 126.91 108.118 123.99 108.118C120.88 108.118 118.01 107.648 115.38 106.708C112.74 105.768 110.44 104.448 108.46 102.758C106.48 101.068 104.93 99.0179 103.8 96.6179C102.67 94.2179 102.11 91.5179 102.11 88.4979C102.11 84.2579 102.91 80.7779 104.51 78.0479C106.11 75.3179 108.63 73.0879 112.06 71.3379C115.49 69.5979 119.92 68.2979 125.33 67.4579C130.74 66.6079 137.31 65.9979 145.03 65.6179C145.78 57.5279 145.45 51.5979 144.04 47.8279C142.63 44.0679 139.57 42.1779 134.86 42.1779C131.94 42.1779 129.26 42.6479 126.81 43.5879L120.17 60.5279H113.96C113.21 59.3979 112.48 58.1079 111.77 56.6479C111.06 55.1879 110.4 53.6379 109.79 51.9879C109.18 50.3379 108.66 48.6679 108.24 46.9779C107.82 45.2879 107.51 43.6379 107.32 42.0379C110.9 39.5879 115.51 37.6579 121.16 36.2479C126.81 34.8379 132.78 34.1279 139.09 34.1279C144.45 34.1279 148.83 34.7179 152.22 35.8879C155.61 37.0679 158.27 38.6679 160.2 40.6879C162.13 42.7179 163.47 45.0879 164.22 47.8179C164.97 50.5479 165.35 53.4679 165.35 56.5679C165.35 62.2179 165.23 67.3179 165 71.8879C164.76 76.4579 164.65 81.1379 164.65 85.9379L164.66 85.9479ZM132.89 96.8179C134.87 96.8179 136.56 96.4379 137.97 95.6879C139.38 94.9379 140.58 94.0379 141.57 93.0079C142.56 91.9779 143.31 90.8479 143.83 89.6179C144.35 88.3979 144.75 87.3079 145.03 86.3679V72.2479C140.6 72.3479 136.98 72.6279 134.16 73.0979C131.34 73.5679 129.12 74.3479 127.52 75.4279C125.92 76.5079 124.81 77.8779 124.2 79.5179C123.59 81.1679 123.28 83.1679 123.28 85.5179C123.28 89.0979 124.13 91.8679 125.82 93.8479C127.51 95.8279 129.87 96.8179 132.88 96.8179H132.89Z" fill="#FF385C"/>
<path d="M229.46 92.448C228.99 94.518 228.14 96.498 226.92 98.378C225.7 100.258 224.24 101.928 222.54 103.388C220.85 104.848 218.92 105.998 216.75 106.848C214.58 107.698 212.28 108.118 209.83 108.118C200.51 108.118 193.43 105.178 188.58 99.298C183.73 93.4181 181.31 84.398 181.31 72.258C181.31 66.048 182.16 60.608 183.85 55.948C185.54 51.288 187.92 47.358 190.98 44.158C194.04 40.958 197.73 38.558 202.06 36.958C206.39 35.358 211.19 34.558 216.46 34.558C218.15 34.558 219.59 34.608 220.77 34.698C221.95 34.788 223.03 34.908 224.02 35.048C225.01 35.188 225.95 35.428 226.84 35.758C227.73 36.088 228.75 36.438 229.88 36.818V11.828L219.15 10.688V5.32805C220.47 4.76805 222.28 4.24805 224.59 3.77805C226.9 3.30805 229.32 2.85805 231.86 2.43805C234.4 2.01805 236.89 1.61805 239.34 1.23805C241.79 0.858047 243.81 0.528047 245.41 0.248047H250.21V96.398L259.53 97.528V102.468C258.21 103.128 256.52 103.738 254.45 104.308C252.38 104.868 250.21 105.388 247.95 105.858C245.69 106.328 243.5 106.728 241.38 107.058C239.26 107.388 237.5 107.648 236.09 107.838H231.29L230.02 92.448H229.46ZM216.61 96.828C219.9 96.828 222.68 95.798 224.94 93.718C227.2 91.648 228.85 88.118 229.88 83.128V45.148C228.66 44.398 227.13 43.788 225.29 43.308C223.45 42.838 221.17 42.598 218.44 42.598C212.98 42.598 209.07 45.068 206.72 50.008C204.37 54.948 203.19 62.128 203.19 71.538C203.19 79.1581 204.22 85.278 206.3 89.888C208.37 94.498 211.81 96.808 216.61 96.808V96.828Z" fill="#FF385C"/>
<path d="M319.39 34.1379H285.71C273.89 34.1379 264.27 42.7279 264.27 53.2779V53.4479L265.3 66.2479L266.72 84.0179L267.13 89.1579C267.23 99.8079 276.61 108.118 288.57 108.118H316.51C328.35 108.118 338 99.6379 338.11 89.1579L338.54 83.8079L339.96 66.1679L340.98 53.4579V53.2879C340.98 42.9079 331.09 34.1479 319.38 34.1479L319.39 34.1379ZM317.39 84.4679C316.77 88.0979 315.85 91.0079 314.64 93.2179C313.42 95.4279 311.96 97.0379 310.26 98.0179C308.56 99.0079 306.68 99.4979 304.61 99.4979C301.03 99.4979 298.12 98.8179 295.86 97.4579C293.61 96.0879 291.82 94.1879 290.5 91.7379C289.18 89.2979 288.26 86.3079 287.75 82.7779C287.23 79.2379 286.97 75.3679 286.97 71.1279C286.97 68.7579 287.03 66.5479 287.16 64.5179C287.31 62.0179 287.55 59.7779 287.89 57.7779C288.18 56.0979 288.52 54.5779 288.95 53.1979C289.43 51.5979 290 50.2179 290.66 49.0279C291.88 46.8179 293.39 45.2079 295.18 44.2279C296.96 43.2379 299.08 42.7379 301.53 42.7379C304.82 42.7379 307.56 43.4179 309.72 44.7879C311.89 46.1579 313.6 48.0579 314.88 50.5079C315.31 51.3479 315.7 52.2479 316.05 53.1979C316.72 55.0379 317.22 57.1079 317.56 59.4079C317.81 61.0879 318.01 62.8779 318.13 64.7579C318.27 66.7679 318.34 68.8879 318.34 71.1279C318.34 76.3979 318.04 80.8479 317.43 84.4679H317.39Z" fill="#FF385C"/>
</g>
<defs>
<clipPath id="clip0_3704_3655">
<rect width="340.12" height="107.87" fill="white" transform="translate(0.879883 0.248047)"/>
</clipPath>
</defs>
</svg>
