<svg width="43" height="42" viewBox="0 0 43 42" fill="none" xmlns="http://www.w3.org/2000/svg">
<path d="M35.3684 14.2772H30.191V7.37402H6.02974C4.13135 7.37402 2.57812 8.92725 2.57812 10.8256V29.8095H6.02974C6.02974 32.6743 8.34232 34.9869 11.2072 34.9869C14.072 34.9869 16.3846 32.6743 16.3846 29.8095H26.7394C26.7394 32.6743 29.052 34.9869 31.9168 34.9869C34.7817 34.9869 37.0943 32.6743 37.0943 29.8095H40.5459V21.1805L35.3684 14.2772ZM34.5055 16.866L37.8881 21.1805H30.191V16.866H34.5055ZM11.2072 31.5353C10.258 31.5353 9.48135 30.7587 9.48135 29.8095C9.48135 28.8603 10.258 28.0837 11.2072 28.0837C12.1564 28.0837 12.933 28.8603 12.933 29.8095C12.933 30.7587 12.1564 31.5353 11.2072 31.5353ZM15.0384 26.3579C14.0893 25.3052 12.7431 24.6321 11.2072 24.6321C9.67119 24.6321 8.32506 25.3052 7.37587 26.3579H6.02974V10.8256H26.7394V26.3579H15.0384ZM31.9168 31.5353C30.9676 31.5353 30.191 30.7587 30.191 29.8095C30.191 28.8603 30.9676 28.0837 31.9168 28.0837C32.866 28.0837 33.6426 28.8603 33.6426 29.8095C33.6426 30.7587 32.866 31.5353 31.9168 31.5353Z" fill="#FF385C"/>
</svg>
