<svg width="26" height="24" viewBox="0 0 26 24" fill="none" xmlns="http://www.w3.org/2000/svg">
<path d="M23 0.75H3C1.6125 0.75 0.5 1.8625 0.5 3.25V18.25C0.5 19.625 1.6125 20.75 3 20.75H8V23.25H18V20.75H23C24.375 20.75 25.5 19.625 25.5 18.25V3.25C25.5 1.8625 24.375 0.75 23 0.75ZM23 18.25H3V3.25H23V18.25Z" fill="#414141"/>
<path d="M15.5 7.3125H5.5V9.1875H15.5V7.3125Z" fill="#414141"/>
<path d="M18.625 9.1875H20.5V7.3125H18.625V5.75H16.75V10.75H18.625V9.1875Z" fill="#414141"/>
<path d="M20.5 12.3125H10.5V14.1875H20.5V12.3125Z" fill="#414141"/>
<path d="M7.375 15.75H9.25V10.75H7.375V12.3125H5.5V14.1875H7.375V15.75Z" fill="#414141"/>
</svg>
