<svg width="36" height="34" viewBox="0 0 36 34" fill="none" xmlns="http://www.w3.org/2000/svg">
<path d="M32 7.5H28.185C28.3775 6.9575 28.5 6.3625 28.5 5.75C28.5 2.845 26.155 0.5 23.25 0.5C21.4125 0.5 19.82 1.445 18.875 2.8625L18 4.035L17.125 2.845C16.18 1.445 14.5875 0.5 12.75 0.5C9.845 0.5 7.5 2.845 7.5 5.75C7.5 6.3625 7.6225 6.9575 7.815 7.5H4C2.0575 7.5 0.5175 9.0575 0.5175 11L0.5 30.25C0.5 32.1925 2.0575 33.75 4 33.75H32C33.9425 33.75 35.5 32.1925 35.5 30.25V11C35.5 9.0575 33.9425 7.5 32 7.5ZM23.25 4C24.2125 4 25 4.7875 25 5.75C25 6.7125 24.2125 7.5 23.25 7.5C22.2875 7.5 21.5 6.7125 21.5 5.75C21.5 4.7875 22.2875 4 23.25 4ZM12.75 4C13.7125 4 14.5 4.7875 14.5 5.75C14.5 6.7125 13.7125 7.5 12.75 7.5C11.7875 7.5 11 6.7125 11 5.75C11 4.7875 11.7875 4 12.75 4ZM32 30.25H4V26.75H32V30.25ZM32 21.5H4V11H12.89L9.25 15.9525L12.085 18L18 9.95L23.915 18L26.75 15.9525L23.11 11H32V21.5Z" fill="white"/>
</svg>
