<svg width="17" height="17" viewBox="0 0 17 17" fill="none" xmlns="http://www.w3.org/2000/svg">
<path d="M17 15.543L12.644 11.187C13.519 10.019 14.043 8.57298 14.043 7.00098C14.043 3.13498 10.909 0.000976562 7.04297 0.000976562C3.17697 0.000976562 0.0429688 3.13498 0.0429688 7.00098C0.0429688 10.867 3.17697 14.001 7.04297 14.001C8.61497 14.001 10.061 13.476 11.229 12.602L15.585 16.958L17 15.543ZM2.04297 6.99998C2.04297 4.24298 4.28597 1.99998 7.04297 1.99998C9.79997 1.99998 12.043 4.24298 12.043 6.99998C12.043 9.75698 9.79997 12 7.04297 12C4.28597 12 2.04297 9.75698 2.04297 6.99998Z" fill="white"/>
</svg>
