<svg width="36" height="35" viewBox="0 0 36 35" fill="none" xmlns="http://www.w3.org/2000/svg">
<path d="M17.9825 0C8.3225 0 0.5 7.84 0.5 17.5C0.5 27.16 8.3225 35 17.9825 35C27.66 35 35.5 27.16 35.5 17.5C35.5 7.84 27.66 0 17.9825 0ZM18 31.5C10.265 31.5 4 25.235 4 17.5C4 9.765 10.265 3.5 18 3.5C25.735 3.5 32 9.765 32 17.5C32 25.235 25.735 31.5 18 31.5ZM24.125 15.75C25.5775 15.75 26.75 14.5775 26.75 13.125C26.75 11.6725 25.5775 10.5 24.125 10.5C22.6725 10.5 21.5 11.6725 21.5 13.125C21.5 14.5775 22.6725 15.75 24.125 15.75ZM11.875 15.75C13.3275 15.75 14.5 14.5775 14.5 13.125C14.5 11.6725 13.3275 10.5 11.875 10.5C10.4225 10.5 9.25 11.6725 9.25 13.125C9.25 14.5775 10.4225 15.75 11.875 15.75ZM18 27.125C22.0775 27.125 25.5425 24.57 26.9425 21H9.0575C10.4575 24.57 13.9225 27.125 18 27.125Z" fill="white"/>
</svg>
