<svg width="25" height="24" viewBox="0 0 25 24" fill="none" xmlns="http://www.w3.org/2000/svg">
<path d="M12.9688 2C10.9909 2 9.05754 2.58649 7.41305 3.6853C5.76856 4.78412 4.48684 6.3459 3.72996 8.17317C2.97308 10.0004 2.77505 12.0111 3.1609 13.9509C3.54675 15.8907 4.49916 17.6725 5.89769 19.0711C7.29621 20.4696 9.07804 21.422 11.0179 21.8079C12.9577 22.1937 14.9683 21.9957 16.7956 21.2388C18.6229 20.4819 20.1846 19.2002 21.2834 17.5557C22.3823 15.9112 22.9688 13.9778 22.9688 12C22.9688 10.6868 22.7101 9.38642 22.2076 8.17317C21.705 6.95991 20.9684 5.85752 20.0398 4.92893C19.1112 4.00035 18.0088 3.26375 16.7956 2.7612C15.5823 2.25866 14.282 2 12.9688 2ZM17.6788 9.71L12.6788 14.71C12.5858 14.8037 12.4752 14.8781 12.3533 14.9289C12.2315 14.9797 12.1008 15.0058 11.9688 15.0058C11.8367 15.0058 11.706 14.9797 11.5842 14.9289C11.4623 14.8781 11.3517 14.8037 11.2588 14.71L9.25875 12.71C9.07045 12.5217 8.96466 12.2663 8.96466 12C8.96466 11.7337 9.07045 11.4783 9.25875 11.29C9.44706 11.1017 9.70245 10.9959 9.96875 10.9959C10.2351 10.9959 10.4905 11.1017 10.6788 11.29L11.9688 12.59L16.2588 8.29C16.4471 8.1017 16.7025 7.99591 16.9688 7.99591C17.2351 7.99591 17.4904 8.1017 17.6788 8.29C17.8671 8.4783 17.9728 8.7337 17.9728 9C17.9728 9.2663 17.8671 9.5217 17.6788 9.71Z" fill="#03D771"/>
</svg>
