<svg width="20" height="21" viewBox="0 0 20 21" fill="none" xmlns="http://www.w3.org/2000/svg">
<path d="M10 0.285645C4.48 0.285645 0 4.76564 0 10.2856C0 15.8056 4.48 20.2856 10 20.2856C15.52 20.2856 20 15.8056 20 10.2856C20 4.76564 15.52 0.285645 10 0.285645ZM10 18.2856C5.59 18.2856 2 14.6956 2 10.2856C2 5.87564 5.59 2.28564 10 2.28564C14.41 2.28564 18 5.87564 18 10.2856C18 14.6956 14.41 18.2856 10 18.2856ZM13 4.78564V7.28564H9V9.28564H13V11.7856L16.5 8.28564L13 4.78564ZM7 8.78564L3.5 12.2856L7 15.7856V13.2856H11V11.2856H7V8.78564Z" fill="white"/>
</svg>
